# xmcd
#
# Track frame offsets:
# 150
# 15993
# 31244
# 49191
# 67535
# 80181
# 92116
# 104710
# 125151
# 142193
# 155313
# 174277
#
# Disc length: 2721 seconds
#
#
# Revision: 0
# Processed by: cddbd v1.4PL0 Copyright (c) Steve Scherf et al.
# Submitted via: FreeRIP 2.30 
#
DISCID=9b0a9f0c
DTITLE=Mendigos da Noite - Mendigos da Noite
DYEAR=2001
DGENRE=Rock
TTITLE0=Sétima Estação
TTITLE1=O Silêncio Pelo Dia
TTITLE2=I Don't Believe
TTITLE3=Eu Não Preciso de Você
TTITLE4=Que Ressaca
TTITLE5=Não Lembro Mais
TTITLE6=Búfalos
TTITLE7=Ponto de Vista
TTITLE8=Não é Fácil Dizer
TTITLE9=Things Like This
TTITLE10=Lucy na Sua Sacada com Doces
TTITLE11=Romance Mexicano(Não Adianta)
EXTD=
EXTT0=
EXTT1=
EXTT2=
EXTT3=
EXTT4=
EXTT5=
EXTT6=
EXTT7=
EXTT8=
EXTT9=
EXTT10=
EXTT11=
PLAYORDER=
